 <svg width="1280" height="720" xmlns="http://www.w3.org/2000/svg" xmlns:xlink="http://www.w3.org/1999/xlink" overflow="hidden">
	<g><rect x="0" y="0" width="1280" height="720" fill="#FFFFFF"/>
		<path id="apical" d="M559.5 360.5C559.5 326.811 586.811 299.5 620.5 299.5 654.189 299.5 681.5 326.811 681.5 360.5 681.5 394.189 654.189 421.5 620.5 421.5 586.811 421.5 559.5 394.189 559.5 360.5Z" stroke="#000000" stroke-width="2" stroke-miterlimit="8" fill="none" fill-rule="evenodd"/>
		<path id="antéro-apical" d="M533.79 272.963C581.792 225.184 659.401 225.264 707.279 273.143L663.862 316.56C639.922 292.621 601.113 292.586 577.106 316.482Z" stroke="#000000" stroke-width="2" stroke-miterlimit="8" fill="none" fill-rule="evenodd"/>
		<path id="septo-apical" d="M533.486 446.733C485.651 398.786 485.641 321.177 533.464 273.243L576.932 316.61C553.02 340.577 553.03 379.387 576.954 403.366Z" stroke="#000000" stroke-width="2" stroke-miterlimit="8" fill="none" fill-rule="evenodd"/>
		<path id="inféro-apical" d="M707.013 447.077C658.988 494.834 581.38 494.717 533.523 446.816L576.961 403.419C600.889 427.369 639.699 427.423 663.717 403.538Z" stroke="#000000" stroke-width="2" stroke-miterlimit="8" fill="none" fill-rule="evenodd"/>		
		<path id="latéro-apical" d="M707.748 273.659C755.367 321.822 755.026 399.43 706.987 447.148L663.715 403.585C687.735 379.726 687.9 340.917 664.085 316.83Z" stroke="#000000" stroke-width="2" stroke-miterlimit="8" fill="none" fill-rule="evenodd"/>
		<path id="inféro-latéral moyen" d="M809.82 361.363C809.224 428.645 772.899 490.537 714.446 523.862L681.628 466.297C719.585 444.657 743.173 404.467 743.559 360.777Z" stroke="#000000" stroke-width="2" stroke-miterlimit="8" fill="none" fill-rule="evenodd"/>
		<path id="antéro-latéral moyen" d="M716.737 196.848C774.907 231.1 810.389 293.781 809.82 361.284L743.344 360.724C743.713 316.967 720.713 276.336 683.006 254.133Z" stroke="#000000" stroke-width="2" stroke-miterlimit="8" fill="none" fill-rule="evenodd"/>
		<path id="antéro-septal moyen" d="M431.419 358.323C432.095 291.33 468.189 229.703 526.289 196.344L558.984 253.286C521.072 275.055 497.519 315.269 497.078 358.984Z" stroke="#000000" stroke-width="2" stroke-miterlimit="8" fill="none" fill-rule="evenodd"/>
		<path id="inféro-septal moyen" d="M524.496 523.068C466.257 488.774 430.767 425.988 431.419 358.406L497.645 359.044C497.221 402.941 520.274 443.723 558.102 465.999Z" stroke="#000000" stroke-width="2" stroke-miterlimit="8" fill="none" fill-rule="evenodd"/>
		<path id="inférieur moyen" d="M714.55 524.207C655.618 557.934 583.122 557.452 524.644 522.944L558.352 465.821C596.305 488.217 643.356 488.53 681.604 466.641Z" stroke="#000000" stroke-width="2" stroke-miterlimit="8" fill="none" fill-rule="evenodd"/>
		<path id="antérieur moyen" d="M526.789 196.003C585.697 162.419 658.083 162.97 716.472 197.447L683.14 253.897C645.006 231.379 597.731 231.019 559.258 252.954Z" stroke="#000000" stroke-width="2" stroke-miterlimit="8" fill="none" fill-rule="evenodd"/>
		<path id="antéro-basal" d="M494.148 140.288C573.072 94.2453 670.804 94.8238 749.177 141.797L716.23 196.768C657.906 161.812 585.176 161.381 526.443 195.645Z" stroke="#000000" stroke-width="2" stroke-miterlimit="8" fill="none" fill-rule="evenodd"/>
		<path id="antéro-septo-basal" d="M367.198 358.06C367.361 267.774 416.093 184.56 494.755 140.244L526.352 196.33C467.903 229.259 431.693 291.09 431.572 358.176Z" stroke="#000000" stroke-width="2" stroke-miterlimit="8" fill="none" fill-rule="evenodd"/>
		<path id="inféro-septo-basal" d="M492.406 578.933C413.444 533.319 365.504 448.4 367.244 357.226L431.576 358.454C430.283 426.211 465.91 489.319 524.592 523.218Z" stroke="#000000" stroke-width="2" stroke-miterlimit="8" fill="none" fill-rule="evenodd"/>
		<path id="antéro-latéro-basal" d="M749.47 141.823C827.404 187.784 875.011 271.602 874.496 361.946L809.814 361.579C810.198 294.221 774.67 231.733 716.516 197.483Z" stroke="#000000" stroke-width="2" stroke-miterlimit="8" fill="none" fill-rule="evenodd"/>
		<path id="inféro-latéro-basal" d="M873.935 361.268C873.451 451.875 824.691 535.357 746.002 580.299L713.983 524.237C772.653 490.728 809.01 428.486 809.374 360.932Z" stroke="#000000" stroke-width="2" stroke-miterlimit="8" fill="none" fill-rule="evenodd"/>
		<path id="inféro-basal" d="M746.221 579.939C667.587 625.309 570.661 625.106 492.187 579.406L524.453 524.005C583.057 558.133 655.438 558.292 714.16 524.42Z" stroke="#000000" stroke-width="2" stroke-miterlimit="8" fill="none" fill-rule="evenodd"/>
	</g>
</svg>